<svg width="214" height="186" viewBox="0 0 214 186" fill="none" xmlns="http://www.w3.org/2000/svg">
<g id="Union">
<path d="M41.7395 37.1193L32.4641 46.3991L69.5659 83.5184L78.8413 74.2386L41.7395 37.1193Z" fill="#FFCC00"/>
<path d="M85.7979 44.0792L76.5225 53.359L88.1168 64.9588L97.3922 55.6789L85.7979 44.0792Z" fill="#FFCC00"/>
<path d="M125.219 102.078L171.596 148.477L180.871 139.197L134.494 92.7982L213.335 13.9197L204.06 4.63991L125.219 83.5184L115.943 92.7982L125.219 102.078Z" fill="#FFCC00"/>
<path d="M97.3922 111.358L32.4641 176.317L41.7395 185.596L106.668 120.638L127.537 141.517L136.813 132.238L115.943 111.358L106.668 102.078L97.3922 111.358Z" fill="#FFCC00"/>
<path d="M9.27545 180.957L0 171.677L97.3922 74.2386L106.668 64.9588L171.596 0L180.871 9.27982L115.943 74.2386L106.668 83.5184L9.27545 180.957Z" fill="#FFCC00"/>
</g>
</svg>
