<svg width="590" height="204" viewBox="0 0 590 204" fill="none" xmlns="http://www.w3.org/2000/svg">
<g id="Group 2.2">
<g id="Mark">
<path d="M223.462 40.7667L213.244 50.9584L254.117 91.7252L264.335 81.5335L223.462 40.7667Z" fill="#FFCC00"/>
<path d="M271.999 48.4105L261.78 58.6022L274.553 71.3418L284.771 61.1501L271.999 48.4105Z" fill="#FFCC00"/>
<path d="M315.426 112.109L366.517 163.067L376.735 152.875L325.644 101.917L412.499 15.2875L402.28 5.09584L315.426 91.7252L305.208 101.917L315.426 112.109Z" fill="#FFCC00"/>
<path d="M284.771 122.3L213.244 193.642L223.462 203.834L294.989 132.492L317.98 155.423L328.199 145.232L305.208 122.3L294.989 112.109L284.771 122.3Z" fill="#FFCC00"/>
<path d="M187.698 198.738L177.48 188.546L284.771 81.5335L294.989 71.3418L366.517 0L376.735 10.1917L305.208 81.5335L294.989 91.7252L187.698 198.738Z" fill="#FFCC00"/>
</g>
<g id="WEST">
<path d="M7.81786 122.44H21.1203L26.0796 90.4H26.7797L31.7389 122.44H44.8663L52.8595 81.6619H43.4077L38.3902 113.702H37.7484L32.9058 81.6619H19.9534L15.1109 113.702H14.4691L9.4515 81.6619H-0.000244141L7.81786 122.44Z" fill="#FFCC00"/>
<path d="M65.6824 122.44H91.9372V114.343H74.3757V105.779H89.0201V97.6819H74.3757V89.8175H91.3538V81.6619H65.6824V122.44Z" fill="#FFCC00"/>
<path d="M119.976 123.197C129.544 123.197 135.379 117.605 135.379 110.614C135.379 93.7788 114.375 100.536 114.375 92.905C114.375 90.9826 115.892 88.9437 119.626 88.9437C123.36 88.9437 125.577 91.3321 125.577 94.5361H134.328C134.328 84.5163 126.51 80.9045 119.859 80.9045C110.991 80.9045 105.681 86.497 105.681 92.905C105.681 109.391 126.452 101.76 126.452 110.556C126.452 113.003 124.41 114.809 120.267 114.809C116.358 114.809 113.149 112.479 113.149 108.517H104.456C104.456 117.43 110.991 123.197 119.976 123.197Z" fill="#FFCC00"/>
<path d="M157.935 122.44H166.57V89.8175H177.48V81.6619H147.025V89.8175H157.935V122.44Z" fill="#FFCC00"/>
</g>
<g id="ART&#226;&#132;&#162;">
<path d="M443.129 122.54H452.289L438.578 81.7622H426.326L412.499 122.54H421.834L424.459 114.385H440.504L443.129 122.54ZM426.968 106.462L432.102 90.5004H432.744L437.937 106.462H426.968Z" fill="#FFCC00"/>
<path d="M470.767 122.54H479.461V107.802H483.603L491.129 122.54H501.048L492.121 106.462C496.847 104.248 499.414 99.9959 499.414 94.52C499.414 86.8886 493.405 81.7622 484.828 81.7622H470.767V122.54ZM479.461 99.9376V89.8596H484.653C488.562 89.8596 490.371 92.0733 490.371 94.6947C490.371 98.0735 488.096 99.9376 484.945 99.9376H479.461Z" fill="#FFCC00"/>
<path d="M529.356 122.54H537.991V89.9179H548.901V81.7622H518.445V89.9179H529.356V122.54Z" fill="#FFCC00"/>
<path d="M568.869 93.5588H571.593V84.3181H574.382V81.7622H566.046V84.3181H568.869V93.5588ZM576.417 93.5588H578.944V84.3181H579.305L580.815 93.5588H584.983L586.525 84.3181H586.886V93.5588H589.38V81.7622H584.687L583.178 91.0028H582.62L581.11 81.7622H576.417V93.5588Z" fill="#FFCC00"/>
</g>
</g>
</svg>
